# xmcd
#
# Track frame offsets: 
#        150
#        24981
#        49300
#        85939
#        112575
#        149733
#        177327
#        205584
#        241564
#        282609
#        310693
#
# Disc length: 4488 seconds
#
# Revision: 1
# Processed by: cddbd v1.5.2PL0 Copyright (c) Steve Scherf et al.
# Submitted via: ExactAudioCopyFreeDBPlugin 1.0
#
DISCID=8f11860b
DTITLE=Abi Wallenstein - FeelGoodBoogie
DYEAR=2012
DGENRE=Blues
TTITLE0=King Bee
TTITLE1=Route 66
TTITLE2=Kansas City
TTITLE3=As Long As I Can See The Light
TTITLE4=Willow Tree
TTITLE5=Money
TTITLE6=Cry Cry Baby
TTITLE7=Death Letter Blues
TTITLE8=I Just Wanna Make Love To You
TTITLE9=Same Old Blues
TTITLE10=Shake Your Boogie (Rotunde Boogie)
EXTD=
EXTT0=
EXTT1=
EXTT2=
EXTT3=
EXTT4=
EXTT5=
EXTT6=
EXTT7=
EXTT8=
EXTT9=
EXTT10=
PLAYORDER=
